<svg width="1200" height="630" viewBox="0 0 1200 630" fill="none" xmlns="http://www.w3.org/2000/svg">
  <rect width="1200" height="630" rx="36" fill="#F6F2EA"/>
  <circle cx="178" cy="126" r="130" fill="#FDE7BF"/>
  <circle cx="1038" cy="522" r="170" fill="#F1F5F9"/>
  <rect x="90" y="88" width="1020" height="454" rx="32" fill="white" stroke="#E5DDD1" stroke-width="4"/>
  <rect x="138" y="136" width="72" height="72" rx="22" fill="#FDE7BF"/>
  <path d="M160 158H188V186H160V158Z" fill="#B45309"/>
  <path d="M169 167H179V177H169V167Z" fill="#FDE7BF"/>
  <text x="234" y="172" fill="#1F2937" font-family="Arial, sans-serif" font-size="28" font-weight="700">EventQR</text>
  <text x="234" y="208" fill="#6B7280" font-family="Arial, sans-serif" font-size="20" font-weight="700">Powered by Magitecx</text>
  <text x="138" y="274" fill="#1F2937" font-family="Arial, sans-serif" font-size="68" font-weight="700">QR Attendance for</text>
  <text x="138" y="348" fill="#1F2937" font-family="Arial, sans-serif" font-size="68" font-weight="700">Recurring Events</text>
  <text x="138" y="412" fill="#6B7280" font-family="Arial, sans-serif" font-size="28">Secure attendee QR codes, live staff scanning, and session-by-session reports.</text>
  <rect x="138" y="452" width="228" height="56" rx="18" fill="#D97706"/>
  <text x="198" y="488" fill="white" font-family="Arial, sans-serif" font-size="24" font-weight="700">EventQR</text>
  <text x="138" y="538" fill="#6B7280" font-family="Arial, sans-serif" font-size="24">Powered by Magitecx</text>
  <rect x="739" y="182" width="286" height="210" rx="28" fill="#F7F5F0" stroke="#E5DDD1" stroke-width="3"/>
  <rect x="774" y="218" width="84" height="84" rx="18" fill="#0F172A"/>
  <rect x="797" y="241" width="38" height="38" fill="#F8FAFC"/>
  <rect x="886" y="222" width="106" height="18" rx="9" fill="#D1D5DB"/>
  <rect x="886" y="253" width="88" height="14" rx="7" fill="#E5E7EB"/>
  <rect x="886" y="283" width="96" height="14" rx="7" fill="#E5E7EB"/>
  <rect x="774" y="332" width="218" height="34" rx="12" fill="#DCFCE7"/>
  <text x="823" y="354" fill="#15803D" font-family="Arial, sans-serif" font-size="20" font-weight="700">Checked in</text>
</svg>
